<svg id="visual" viewBox="0 0 960 540" width="960" height="540" xmlns="http://www.w3.org/2000/svg" xmlns:xlink="http://www.w3.org/1999/xlink" version="1.1"><rect x="0" y="0" width="960" height="540" fill="#101917"></rect><path d="M0 256L17.8 263.3C35.7 270.7 71.3 285.3 106.8 290.7C142.3 296 177.7 292 213.2 292.8C248.7 293.7 284.3 299.3 320 296C355.7 292.7 391.3 280.3 426.8 273.3C462.3 266.3 497.7 264.7 533.2 264.5C568.7 264.3 604.3 265.7 640 264.7C675.7 263.7 711.3 260.3 746.8 261.5C782.3 262.7 817.7 268.3 853.2 272.3C888.7 276.3 924.3 278.7 942.2 279.8L960 281L960 541L942.2 541C924.3 541 888.7 541 853.2 541C817.7 541 782.3 541 746.8 541C711.3 541 675.7 541 640 541C604.3 541 568.7 541 533.2 541C497.7 541 462.3 541 426.8 541C391.3 541 355.7 541 320 541C284.3 541 248.7 541 213.2 541C177.7 541 142.3 541 106.8 541C71.3 541 35.7 541 17.8 541L0 541Z" fill="#e3eceb"></path><path d="M0 318L17.8 322.5C35.7 327 71.3 336 106.8 335.2C142.3 334.3 177.7 323.7 213.2 322.3C248.7 321 284.3 329 320 331.3C355.7 333.7 391.3 330.3 426.8 324.8C462.3 319.3 497.7 311.7 533.2 308.8C568.7 306 604.3 308 640 313.5C675.7 319 711.3 328 746.8 331.2C782.3 334.3 817.7 331.7 853.2 331.8C888.7 332 924.3 335 942.2 336.5L960 338L960 541L942.2 541C924.3 541 888.7 541 853.2 541C817.7 541 782.3 541 746.8 541C711.3 541 675.7 541 640 541C604.3 541 568.7 541 533.2 541C497.7 541 462.3 541 426.8 541C391.3 541 355.7 541 320 541C284.3 541 248.7 541 213.2 541C177.7 541 142.3 541 106.8 541C71.3 541 35.7 541 17.8 541L0 541Z" fill="#bfd9d6"></path><path d="M0 390L17.8 390.8C35.7 391.7 71.3 393.3 106.8 393.8C142.3 394.3 177.7 393.7 213.2 391.7C248.7 389.7 284.3 386.3 320 382.2C355.7 378 391.3 373 426.8 372.5C462.3 372 497.7 376 533.2 374C568.7 372 604.3 364 640 361.2C675.7 358.3 711.3 360.7 746.8 367.2C782.3 373.7 817.7 384.3 853.2 388.2C888.7 392 924.3 389 942.2 387.5L960 386L960 541L942.2 541C924.3 541 888.7 541 853.2 541C817.7 541 782.3 541 746.8 541C711.3 541 675.7 541 640 541C604.3 541 568.7 541 533.2 541C497.7 541 462.3 541 426.8 541C391.3 541 355.7 541 320 541C284.3 541 248.7 541 213.2 541C177.7 541 142.3 541 106.8 541C71.3 541 35.7 541 17.8 541L0 541Z" fill="#9bc7c2"></path><path d="M0 431L17.8 428.7C35.7 426.3 71.3 421.7 106.8 420.8C142.3 420 177.7 423 213.2 425C248.7 427 284.3 428 320 427.7C355.7 427.3 391.3 425.7 426.8 426.7C462.3 427.7 497.7 431.3 533.2 429.2C568.7 427 604.3 419 640 417C675.7 415 711.3 419 746.8 419.5C782.3 420 817.7 417 853.2 415.8C888.7 414.7 924.3 415.3 942.2 415.7L960 416L960 541L942.2 541C924.3 541 888.7 541 853.2 541C817.7 541 782.3 541 746.8 541C711.3 541 675.7 541 640 541C604.3 541 568.7 541 533.2 541C497.7 541 462.3 541 426.8 541C391.3 541 355.7 541 320 541C284.3 541 248.7 541 213.2 541C177.7 541 142.3 541 106.8 541C71.3 541 35.7 541 17.8 541L0 541Z" fill="#76b5ad"></path><path d="M0 467L17.8 468.3C35.7 469.7 71.3 472.3 106.8 473.3C142.3 474.3 177.7 473.7 213.2 470.5C248.7 467.3 284.3 461.7 320 461.5C355.7 461.3 391.3 466.7 426.8 467.2C462.3 467.7 497.7 463.3 533.2 462.8C568.7 462.3 604.3 465.7 640 467C675.7 468.3 711.3 467.7 746.8 466.7C782.3 465.7 817.7 464.3 853.2 463.7C888.7 463 924.3 463 942.2 463L960 463L960 541L942.2 541C924.3 541 888.7 541 853.2 541C817.7 541 782.3 541 746.8 541C711.3 541 675.7 541 640 541C604.3 541 568.7 541 533.2 541C497.7 541 462.3 541 426.8 541C391.3 541 355.7 541 320 541C284.3 541 248.7 541 213.2 541C177.7 541 142.3 541 106.8 541C71.3 541 35.7 541 17.8 541L0 541Z" fill="#4ea398"></path></svg>